<svg width="76" height="75" viewBox="0 0 76 75" fill="none" xmlns="http://www.w3.org/2000/svg">
<path d="M62.6563 27.3375C60.3723 28.5493 58.4949 30.4057 57.2575 32.6759C56.0202 34.9462 55.4775 37.53 55.6969 40.1063C55.8676 42.7017 56.7612 45.1977 58.2766 47.3117C59.792 49.4258 61.8687 51.0736 64.2719 52.0688C64.2835 52.1663 64.2835 52.2649 64.2719 52.3625C62.6237 57.1217 60.0181 61.4928 56.6157 65.2063C55.2895 66.8416 53.4697 68.0037 51.4282 68.5188C49.913 68.7818 48.3558 68.6549 46.9032 68.15C45.3563 67.6719 43.8469 67.0469 42.2657 66.6031C39.4869 65.9442 36.5695 66.203 33.9501 67.3406C32.6084 67.8302 31.2459 68.2469 29.8626 68.5906C29.0274 68.781 28.1621 68.7977 27.3202 68.6396C26.4784 68.4816 25.678 68.1522 24.9688 67.6719C23.2889 66.583 21.7975 65.2277 20.5532 63.6594C16.137 58.2792 13.2516 51.8088 12.2001 44.9281C11.2432 40.2719 11.7171 35.4351 13.5594 31.0531C14.5529 28.6121 16.1408 26.4581 18.1787 24.787C20.2166 23.1159 22.6399 21.9806 25.2282 21.4844C27.6046 21.0325 30.0591 21.2367 32.3282 22.075L37.1876 23.7313C38.0407 24.0594 38.9844 24.0594 39.8376 23.7313C41.8962 22.9399 43.9974 22.2638 46.1313 21.7063C48.9872 20.8807 52.0226 20.9114 54.8612 21.7947C57.6998 22.6779 60.2167 24.3748 62.1001 26.675L62.6563 27.3375Z" fill="#010813"/>
<path d="M51.0965 6.25C51.3046 8.17108 51.0528 10.1141 50.3621 11.9188C49.0887 15.2088 46.7248 17.9622 43.6652 19.7188C42.1405 20.6263 40.3958 21.0976 38.6215 21.0813C38.1434 21.0813 38.034 21.0813 37.9965 20.4563C37.9177 17.3891 38.9212 14.3921 40.8309 11.9906C43.1457 8.92932 46.5668 6.89571 50.3621 6.325L51.0965 6.25Z" fill="#010813"/>
</svg>
