<svg width="57" height="57" viewBox="0 0 57 57" fill="none" xmlns="http://www.w3.org/2000/svg">
<g clip-path="url(#clip0_165_267)">
<path d="M26.6518 27.1973L0.731445 51.7631C1.02253 52.6962 1.54561 53.5568 2.26071 54.279C2.97582 55.0013 3.864 55.566 4.85737 55.9302C5.85075 56.2943 6.92301 56.4482 7.99219 56.38C9.06138 56.3118 10.0992 56.0234 11.0263 55.5368L40.1915 40.511L26.6518 27.1973Z" fill="#EA4335"/>
<path d="M52.8622 23.0216L40.2501 16.4868L26.0537 27.7561L40.3079 40.4758L52.8239 34.0111C53.9327 33.4859 54.8614 32.6962 55.5094 31.7276C56.1574 30.759 56.4999 29.6484 56.4999 28.5162C56.4999 27.3841 56.1574 26.2735 55.5094 25.3049C54.8614 24.3363 53.9327 23.5466 52.8239 23.0214L52.8622 23.0216Z" fill="#FBBC04"/>
<path d="M0.731943 5.14746C0.57536 5.67143 0.49737 6.21207 0.500068 6.75484V50.1552C0.501614 50.6978 0.579532 51.238 0.731943 51.7628L27.5409 27.8261L0.731943 5.14746Z" fill="#4285F4"/>
<path d="M26.8449 28.4553L40.2495 16.4869L11.1229 1.39107C10.0271 0.810526 8.78069 0.503072 7.51073 0.500012C4.3592 0.494472 1.58851 2.3866 0.731445 5.1302L26.8449 28.4553Z" fill="#34A853"/>
</g>
<defs>
<clipPath id="clip0_165_267">
<rect width="56" height="56" fill="white" transform="translate(0.5 0.5)"/>
</clipPath>
</defs>
</svg>
