<svg width="16" height="17" viewBox="0 0 16 17" fill="none" xmlns="http://www.w3.org/2000/svg">
<g clip-path="url(#clip0_178_330)">
<path d="M14.5 0.875058H1.5C1.20504 0.872056 0.920934 0.986188 0.710024 1.19241C0.499114 1.39863 0.378626 1.6801 0.375 1.97506V15.0276C0.379282 15.3221 0.500058 15.6029 0.710896 15.8086C0.921735 16.0143 1.20547 16.1281 1.5 16.1251H14.5C14.795 16.1274 15.0789 16.0129 15.2897 15.8065C15.5005 15.6002 15.621 15.3188 15.625 15.0238V1.97131C15.6197 1.67722 15.4986 1.39709 15.288 1.19181C15.0773 0.986538 14.7941 0.872705 14.5 0.875058Z" fill="#0076B2"/>
<path d="M2.63215 6.59131H4.8959V13.8751H2.63215V6.59131ZM3.76465 2.96631C4.02429 2.96631 4.2781 3.04332 4.49396 3.18759C4.70983 3.33187 4.87806 3.53692 4.97736 3.77683C5.07666 4.01673 5.10258 4.28069 5.05184 4.53532C5.00109 4.78996 4.87596 5.02382 4.69228 5.20733C4.5086 5.39083 4.27462 5.51574 4.01994 5.56624C3.76526 5.61674 3.50132 5.59057 3.26151 5.49104C3.0217 5.39151 2.81681 5.22309 2.67274 5.00708C2.52867 4.79108 2.4519 4.5372 2.45215 4.27756C2.45248 3.92968 2.59091 3.59616 2.83701 3.35029C3.08312 3.10442 3.41677 2.96631 3.76465 2.96631ZM6.3159 6.59131H8.4859V7.59131H8.5159C8.8184 7.01881 9.5559 6.41506 10.6571 6.41506C12.9496 6.41006 13.3746 7.91881 13.3746 9.87506V13.8751H11.1109V10.3313C11.1109 9.48756 11.0959 8.40131 9.93465 8.40131C8.7734 8.40131 8.5759 9.32131 8.5759 10.2763V13.8751H6.3159V6.59131Z" fill="white"/>
</g>
<defs>
<clipPath id="clip0_178_330">
<rect width="16" height="16" fill="white" transform="translate(0 0.5)"/>
</clipPath>
</defs>
</svg>
