<svg width="188" height="64" viewBox="0 0 188 64" fill="none" xmlns="http://www.w3.org/2000/svg">
<path d="M22.8428 43.2568C22.8428 45.095 22.4999 46.7084 21.8169 48.0969C21.1311 49.4854 20.2035 50.6434 19.0315 51.571C17.8594 52.4985 16.4906 53.1984 14.9222 53.665C13.3538 54.1344 11.6786 54.3677 9.89377 54.3677C8.68516 54.3677 7.56368 54.2693 6.52933 54.0697C5.49217 53.8701 4.57868 53.634 3.78605 53.353C2.99343 53.0747 2.3301 52.7796 1.79887 52.4732C1.26764 52.1668 0.882571 51.897 0.64928 51.6637C0.41599 51.4304 0.247344 51.0903 0.148968 50.6491C0.0505928 50.2078 0 49.5725 0 48.7434C0 48.184 0.0168651 47.7175 0.0534046 47.338C0.0899441 46.9586 0.14897 46.6522 0.227671 46.4189C0.309182 46.1856 0.415988 46.017 0.550903 45.9186C0.685818 45.8202 0.843219 45.7696 1.02311 45.7696C1.27607 45.7696 1.63022 45.9186 2.09118 46.2165C2.55214 46.5145 3.13959 46.8433 3.86194 47.2031C4.58149 47.5629 5.44439 47.8917 6.44219 48.1897C7.44281 48.4876 8.60084 48.6366 9.91626 48.6366C10.782 48.6366 11.5549 48.5326 12.2407 48.3246C12.9266 48.1166 13.5056 47.8243 13.9834 47.4448C14.4612 47.0654 14.8266 46.5988 15.0796 46.0395C15.3325 45.4801 15.459 44.8589 15.459 44.1731C15.459 43.3805 15.2426 42.7003 14.8097 42.1325C14.3769 41.5648 13.8147 41.0616 13.1205 40.6176C12.4262 40.1763 11.6392 39.7631 10.7539 39.3752C9.87129 38.9873 8.96061 38.577 8.02464 38.1441C7.08866 37.7113 6.17799 37.2194 5.29542 36.6713C4.41285 36.1204 3.62303 35.4655 2.92878 34.6982C2.23453 33.9336 1.67239 33.0258 1.23953 31.9802C0.806681 30.9346 0.590253 29.6838 0.590253 28.2222C0.590253 26.547 0.902244 25.0714 1.52342 23.801C2.14459 22.5305 2.98219 21.4765 4.03621 20.6389C5.09023 19.8013 6.33539 19.1745 7.76605 18.7613C9.19952 18.3481 10.7173 18.1401 12.3222 18.1401C13.1514 18.1401 13.9806 18.2048 14.8097 18.3285C15.6389 18.4549 16.4147 18.6264 17.1342 18.8428C17.8538 19.0592 18.4946 19.301 19.0539 19.5736C19.6133 19.8434 19.9815 20.0683 20.1614 20.2482C20.3413 20.4281 20.4621 20.5827 20.5268 20.7091C20.5886 20.8356 20.6448 21.0015 20.6898 21.2095C20.7348 21.4175 20.7657 21.6788 20.7854 21.9936C20.8022 22.3084 20.8135 22.702 20.8135 23.1685C20.8135 23.6913 20.7994 24.1326 20.7741 24.4924C20.746 24.8522 20.701 25.1501 20.6392 25.3834C20.5746 25.6167 20.4846 25.7881 20.3694 25.8978C20.2513 26.0046 20.0939 26.0608 19.8972 26.0608C19.7004 26.0608 19.3828 25.9343 18.9499 25.6813C18.5171 25.4284 17.9859 25.1529 17.3563 24.8578C16.7239 24.5598 15.9959 24.29 15.1667 24.0455C14.3375 23.801 13.4269 23.6801 12.4375 23.6801C11.6617 23.6801 10.9871 23.7757 10.4109 23.964C9.83475 24.1523 9.3513 24.4137 8.96342 24.7482C8.57554 25.0826 8.28885 25.4818 8.09772 25.9512C7.9094 26.4206 7.81383 26.9152 7.81383 27.438C7.81383 28.2138 8.02464 28.8856 8.44906 29.4533C8.87348 30.0211 9.44125 30.527 10.1524 30.9683C10.8635 31.4096 11.6702 31.8256 12.5724 32.2107C13.4746 32.5985 14.3938 33.0089 15.3297 33.4418C16.2657 33.8746 17.1848 34.3665 18.0871 34.9146C18.9893 35.4655 19.7904 36.1232 20.493 36.8877C21.1957 37.655 21.7635 38.5545 22.1963 39.5916C22.6292 40.6288 22.8456 41.8487 22.8456 43.254L22.8428 43.2568Z" fill="url(#paint0_linear_252_473)"/>
<path d="M42.1434 50.4465C42.1434 51.2391 42.0928 51.8491 41.9944 52.2707C41.8961 52.6951 41.764 52.9902 41.6037 53.1617C41.4435 53.3331 41.2018 53.4849 40.887 53.6198C40.5722 53.7547 40.2012 53.8728 39.7796 53.9712C39.3552 54.0695 38.897 54.1454 38.3995 54.2016C37.9048 54.255 37.4045 54.2832 36.8986 54.2832C35.5466 54.2832 34.3745 54.1117 33.3852 53.7688C32.393 53.4259 31.5751 52.9003 30.9258 52.1863C30.2765 51.4752 29.7987 50.5786 29.4923 49.4965C29.1859 48.4143 29.0342 47.1355 29.0342 45.657V33.3039H26.1419C25.799 33.3039 25.5376 33.0931 25.3577 32.6686C25.1778 32.2442 25.0879 31.5387 25.0879 30.5465C25.0879 30.0237 25.1104 29.5824 25.1553 29.2227C25.2003 28.8629 25.2678 28.579 25.3577 28.371C25.4477 28.163 25.5601 28.0141 25.695 27.9241C25.8299 27.8342 25.9873 27.7892 26.1672 27.7892H29.0313V22.4095C29.0313 22.2296 29.0819 22.0666 29.1803 21.9232C29.2787 21.7799 29.4586 21.6562 29.72 21.5578C29.9814 21.4594 30.3327 21.3864 30.774 21.3414C31.2153 21.2964 31.7606 21.2739 32.4098 21.2739C33.0591 21.2739 33.6297 21.2964 34.0738 21.3414C34.5151 21.3864 34.8608 21.4594 35.1138 21.5578C35.3667 21.6562 35.5466 21.7799 35.6534 21.9232C35.7602 22.0666 35.8165 22.2296 35.8165 22.4095V27.7892H41.0613C41.2412 27.7892 41.3986 27.8342 41.5335 27.9241C41.6684 28.0141 41.7808 28.163 41.8708 28.371C41.9607 28.579 42.0282 28.8629 42.0731 29.2227C42.1181 29.5824 42.1406 30.0237 42.1406 30.5465C42.1406 31.5387 42.0507 32.2442 41.8708 32.6686C41.6909 33.0931 41.4295 33.3039 41.0866 33.3039H35.8165V44.6311C35.8165 45.9465 36.0244 46.9331 36.4376 47.5908C36.8508 48.2485 37.59 48.5774 38.6553 48.5774C39.0151 48.5774 39.3411 48.5465 39.6278 48.4818C39.9145 48.42 40.1731 48.3469 40.3979 48.2654C40.6228 48.1839 40.8111 48.1136 40.9657 48.049C41.1175 47.9871 41.258 47.9534 41.3845 47.9534C41.4913 47.9534 41.5953 47.9843 41.6965 48.049C41.7949 48.1136 41.8736 48.2373 41.927 48.4284C41.9804 48.6167 42.031 48.8753 42.0759 49.1985C42.1209 49.5218 42.1434 49.9378 42.1434 50.4409V50.4465Z" fill="url(#paint1_linear_252_473)"/>
<path d="M67.0704 52.909C67.0704 53.162 66.9805 53.3587 66.8006 53.5049C66.6207 53.6482 66.3368 53.7522 65.949 53.8169C65.5611 53.8787 64.9905 53.9124 64.2316 53.9124C63.4193 53.9124 62.829 53.8815 62.4608 53.8169C62.0926 53.7522 61.8284 53.651 61.6766 53.5049C61.522 53.3615 61.4462 53.162 61.4462 52.909V50.9893C60.454 52.0517 59.3241 52.8809 58.0536 53.4768C56.7832 54.0726 55.3722 54.3678 53.8235 54.3678C52.5446 54.3678 51.3669 54.2019 50.296 53.8675C49.2223 53.533 48.2947 53.0383 47.5106 52.3806C46.7264 51.7229 46.1192 50.9078 45.6864 49.9352C45.2535 48.9627 45.0371 47.8272 45.0371 46.5286C45.0371 45.1233 45.3126 43.9034 45.8607 42.8663C46.4116 41.8291 47.2295 40.9746 48.32 40.2972C49.4106 39.6227 50.7654 39.1224 52.3872 38.7963C54.009 38.4731 55.8921 38.3101 58.0367 38.3101H60.3893V36.8513C60.3893 36.0952 60.3134 35.4319 60.1588 34.8641C60.0043 34.2963 59.7541 33.8241 59.4028 33.4447C59.0514 33.0652 58.582 32.787 57.9974 32.6071C57.4128 32.4272 56.6876 32.3373 55.8219 32.3373C54.6864 32.3373 53.6717 32.4637 52.7807 32.7167C51.8897 32.9697 51.0999 33.2479 50.414 33.5543C49.7282 33.8607 49.1576 34.1389 48.6967 34.3919C48.2385 34.6449 47.8619 34.7714 47.5752 34.7714C47.3756 34.7714 47.2014 34.7095 47.0468 34.583C46.8922 34.4566 46.7685 34.2767 46.6673 34.0434C46.569 33.8101 46.4903 33.5206 46.4369 33.1777C46.3834 32.8348 46.3553 32.4581 46.3553 32.0421C46.3553 31.4828 46.4003 31.0415 46.4903 30.7183C46.5802 30.395 46.7517 30.0999 47.0046 29.8413C47.2576 29.5799 47.6989 29.2904 48.3285 28.9756C48.9581 28.6608 49.6973 28.3685 50.5461 28.0959C51.3922 27.826 52.3169 27.604 53.3175 27.4325C54.3181 27.2611 55.3497 27.1768 56.4121 27.1768C58.3038 27.1768 59.9227 27.3623 61.2635 27.7305C62.607 28.0987 63.7088 28.6664 64.5745 29.4338C65.4402 30.2011 66.0698 31.1877 66.4661 32.3935C66.8624 33.6021 67.062 35.0328 67.062 36.6911V52.9118L67.0704 52.909ZM60.3921 42.5824H57.7978C56.6988 42.5824 55.7601 42.6639 54.9871 42.8269C54.2113 42.9899 53.5817 43.2317 53.0955 43.5577C52.6092 43.8837 52.2523 44.2744 52.0274 44.7326C51.8025 45.1907 51.6901 45.7191 51.6901 46.315C51.6901 47.3241 52.0105 48.1167 52.6486 48.6929C53.2894 49.2691 54.1748 49.5586 55.3103 49.5586C56.266 49.5586 57.1429 49.3141 57.9468 48.8278C58.7479 48.3416 59.563 47.6304 60.3921 46.6917V42.5824Z" fill="url(#paint2_linear_252_473)"/>
<path d="M90.8322 46.0144C90.8322 47.3832 90.5764 48.5918 90.062 49.6374C89.5477 50.683 88.8225 51.5572 87.8865 52.2598C86.9505 52.9625 85.8403 53.4909 84.5614 53.8423C83.2825 54.1936 81.894 54.3707 80.3987 54.3707C79.4965 54.3707 78.6364 54.3032 77.8157 54.1683C76.9949 54.0334 76.2613 53.862 75.612 53.654C74.9628 53.446 74.4231 53.2352 73.9903 53.0187C73.5574 52.8023 73.2426 52.5999 73.043 52.4116C72.8435 52.2233 72.6917 51.9254 72.5849 51.5206C72.4781 51.1159 72.4219 50.5172 72.4219 49.7217C72.4219 49.1989 72.4387 48.7802 72.4753 48.4654C72.5118 48.1506 72.5652 47.8976 72.6383 47.7093C72.7114 47.5209 72.8013 47.3945 72.9081 47.3298C73.0149 47.268 73.1527 47.2343 73.3129 47.2343C73.5096 47.2343 73.8048 47.3467 74.1926 47.5715C74.5805 47.7964 75.0611 48.0437 75.6402 48.3164C76.2164 48.5862 76.8881 48.8392 77.6555 49.0725C78.42 49.3058 79.2913 49.4238 80.2638 49.4238C80.8766 49.4238 81.4218 49.362 81.8997 49.2355C82.3775 49.109 82.7907 48.9291 83.142 48.6958C83.4933 48.4625 83.7604 48.1646 83.9402 47.8048C84.1201 47.4451 84.2101 47.0291 84.2101 46.5625C84.2101 46.0228 84.0442 45.5591 83.7098 45.1712C83.3753 44.7833 82.934 44.446 82.3859 44.1565C81.835 43.867 81.2138 43.5972 80.5196 43.3442C79.8253 43.0912 79.1142 42.813 78.3834 42.5066C77.6526 42.2002 76.9415 41.8489 76.2473 41.4526C75.553 41.0563 74.9319 40.57 74.381 39.9938C73.8301 39.4176 73.3888 38.7234 73.0571 37.9111C72.7226 37.0988 72.5568 36.1262 72.5568 34.9907C72.5568 33.8552 72.7816 32.7787 73.2314 31.8146C73.6811 30.8505 74.3304 30.027 75.1764 29.3411C76.0224 28.6553 77.054 28.1241 78.271 27.7475C79.4881 27.3708 80.8541 27.1797 82.3662 27.1797C83.1223 27.1797 83.8559 27.2331 84.5699 27.3427C85.281 27.4495 85.9246 27.5872 86.5036 27.7475C87.0798 27.9105 87.5661 28.0847 87.9624 28.2759C88.3587 28.4642 88.6426 28.6272 88.8141 28.7621C88.9855 28.897 89.1064 29.032 89.1795 29.1669C89.2525 29.3018 89.3059 29.4648 89.3425 29.6531C89.379 29.8414 89.4099 30.0775 89.438 30.3558C89.4661 30.6369 89.4774 30.9826 89.4774 31.3958C89.4774 31.882 89.4633 32.2784 89.438 32.5847C89.4099 32.8911 89.365 33.1356 89.3031 33.3155C89.2385 33.4954 89.1542 33.6163 89.0473 33.6809C88.9405 33.7427 88.8141 33.7765 88.6679 33.7765C88.5049 33.7765 88.2519 33.6809 87.9118 33.4926C87.5689 33.3043 87.1417 33.1019 86.6273 32.8855C86.1129 32.669 85.5199 32.4667 84.8425 32.2783C84.1679 32.09 83.395 31.9945 82.5321 31.9945C81.9193 31.9945 81.3881 32.0591 80.9384 32.1828C80.4887 32.3093 80.1177 32.4892 79.831 32.7224C79.5415 32.9557 79.325 33.2312 79.1817 33.546C79.0383 33.8608 78.9653 34.2009 78.9653 34.5607C78.9653 35.12 79.1367 35.5894 79.4796 35.966C79.8225 36.3455 80.2722 36.6771 80.8316 36.9667C81.3909 37.2562 82.0261 37.526 82.7373 37.7761C83.4484 38.0291 84.1707 38.3046 84.8987 38.5997C85.6295 38.8976 86.349 39.2433 87.0602 39.6397C87.7713 40.036 88.4065 40.5222 88.9658 41.0984C89.5252 41.6746 89.9749 42.3633 90.3178 43.1671C90.6607 43.9682 90.8322 44.921 90.8322 46.02V46.0144Z" fill="url(#paint3_linear_252_473)"/>
<path d="M118.974 52.8272C118.974 53.0071 118.92 53.1645 118.81 53.2994C118.704 53.4343 118.521 53.5467 118.271 53.6367C118.018 53.7266 117.672 53.7941 117.231 53.839C116.79 53.884 116.244 53.9065 115.595 53.9065C114.946 53.9065 114.375 53.884 113.931 53.839C113.49 53.7941 113.141 53.7266 112.891 53.6367C112.638 53.5467 112.458 53.4343 112.351 53.2994C112.245 53.1645 112.188 53.0071 112.188 52.8272V39.0658C112.188 37.8938 112.101 36.9747 111.933 36.3085C111.761 35.6424 111.514 35.069 111.191 34.5911C110.867 34.1133 110.446 33.7451 109.934 33.4837C109.42 33.2223 108.821 33.093 108.135 33.093C107.27 33.093 106.395 33.4078 105.513 34.0402C104.63 34.6727 103.711 35.5918 102.756 36.7976V52.8272C102.756 53.0071 102.702 53.1645 102.593 53.2994C102.486 53.4343 102.3 53.5467 102.039 53.6367C101.777 53.7266 101.432 53.7941 100.999 53.839C100.566 53.884 100.015 53.9065 99.349 53.9065C98.6828 53.9065 98.1319 53.884 97.6991 53.839C97.2662 53.7941 96.9205 53.7266 96.6591 53.6367C96.3977 53.5467 96.2122 53.4343 96.1054 53.2994C95.9986 53.1645 95.9424 53.0071 95.9424 52.8272V17.2799C95.9424 17.1 95.9958 16.9369 96.1054 16.7936C96.2122 16.6503 96.3977 16.5266 96.6591 16.4282C96.9205 16.3298 97.2662 16.2511 97.6991 16.1977C98.1319 16.1443 98.68 16.1162 99.349 16.1162C100.018 16.1162 100.566 16.1443 100.999 16.1977C101.432 16.2511 101.777 16.3298 102.039 16.4282C102.3 16.5266 102.486 16.6503 102.593 16.7936C102.699 16.9369 102.756 17.1 102.756 17.2799V30.6083C103.928 29.4559 105.122 28.5931 106.336 28.0253C107.554 27.4575 108.818 27.1736 110.134 27.1736C111.772 27.1736 113.155 27.4435 114.282 27.9831C115.41 28.5228 116.32 29.262 117.012 30.2008C117.706 31.1368 118.206 32.2329 118.513 33.4865C118.819 34.7401 118.971 36.2579 118.971 38.0427V52.83L118.974 52.8272Z" fill="url(#paint4_linear_252_473)"/>
<path d="M22.8428 43.2568C22.8428 45.095 22.4999 46.7084 21.8169 48.0969C21.1311 49.4854 20.2035 50.6434 19.0315 51.571C17.8594 52.4985 16.4906 53.1984 14.9222 53.665C13.3538 54.1344 11.6786 54.3677 9.89377 54.3677C8.68516 54.3677 7.56368 54.2693 6.52933 54.0697C5.49217 53.8701 4.57868 53.634 3.78605 53.353C2.99343 53.0747 2.3301 52.7796 1.79887 52.4732C1.26764 52.1668 0.882571 51.897 0.64928 51.6637C0.41599 51.4304 0.247344 51.0903 0.148968 50.6491C0.0505928 50.2078 0 49.5725 0 48.7434C0 48.184 0.0168651 47.7175 0.0534046 47.338C0.0899441 46.9586 0.14897 46.6522 0.227671 46.4189C0.309182 46.1856 0.415988 46.017 0.550903 45.9186C0.685818 45.8202 0.843219 45.7696 1.02311 45.7696C1.27607 45.7696 1.63022 45.9186 2.09118 46.2165C2.55214 46.5145 3.13959 46.8433 3.86194 47.2031C4.58149 47.5629 5.44439 47.8917 6.44219 48.1897C7.44281 48.4876 8.60084 48.6366 9.91626 48.6366C10.782 48.6366 11.5549 48.5326 12.2407 48.3246C12.9266 48.1166 13.5056 47.8243 13.9834 47.4448C14.4612 47.0654 14.8266 46.5988 15.0796 46.0395C15.3325 45.4801 15.459 44.8589 15.459 44.1731C15.459 43.3805 15.2426 42.7003 14.8097 42.1325C14.3769 41.5648 13.8147 41.0616 13.1205 40.6176C12.4262 40.1763 11.6392 39.7631 10.7539 39.3752C9.87129 38.9873 8.96061 38.577 8.02464 38.1441C7.08866 37.7113 6.17799 37.2194 5.29542 36.6713C4.41285 36.1204 3.62303 35.4655 2.92878 34.6982C2.23453 33.9336 1.67239 33.0258 1.23953 31.9802C0.806681 30.9346 0.590253 29.6838 0.590253 28.2222C0.590253 26.547 0.902244 25.0714 1.52342 23.801C2.14459 22.5305 2.98219 21.4765 4.03621 20.6389C5.09023 19.8013 6.33539 19.1745 7.76605 18.7613C9.19952 18.3481 10.7173 18.1401 12.3222 18.1401C13.1514 18.1401 13.9806 18.2048 14.8097 18.3285C15.6389 18.4549 16.4147 18.6264 17.1342 18.8428C17.8538 19.0592 18.4946 19.301 19.0539 19.5736C19.6133 19.8434 19.9815 20.0683 20.1614 20.2482C20.3413 20.4281 20.4621 20.5827 20.5268 20.7091C20.5886 20.8356 20.6448 21.0015 20.6898 21.2095C20.7348 21.4175 20.7657 21.6788 20.7854 21.9936C20.8022 22.3084 20.8135 22.702 20.8135 23.1685C20.8135 23.6913 20.7994 24.1326 20.7741 24.4924C20.746 24.8522 20.701 25.1501 20.6392 25.3834C20.5746 25.6167 20.4846 25.7881 20.3694 25.8978C20.2513 26.0046 20.0939 26.0608 19.8972 26.0608C19.7004 26.0608 19.3828 25.9343 18.9499 25.6813C18.5171 25.4284 17.9859 25.1529 17.3563 24.8578C16.7239 24.5598 15.9959 24.29 15.1667 24.0455C14.3375 23.801 13.4269 23.6801 12.4375 23.6801C11.6617 23.6801 10.9871 23.7757 10.4109 23.964C9.83475 24.1523 9.3513 24.4137 8.96342 24.7482C8.57554 25.0826 8.28885 25.4818 8.09772 25.9512C7.9094 26.4206 7.81383 26.9152 7.81383 27.438C7.81383 28.2138 8.02464 28.8856 8.44906 29.4533C8.87348 30.0211 9.44125 30.527 10.1524 30.9683C10.8635 31.4096 11.6702 31.8256 12.5724 32.2107C13.4746 32.5985 14.3938 33.0089 15.3297 33.4418C16.2657 33.8746 17.1848 34.3665 18.0871 34.9146C18.9893 35.4655 19.7904 36.1232 20.493 36.8877C21.1957 37.655 21.7635 38.5545 22.1963 39.5916C22.6292 40.6288 22.8456 41.8487 22.8456 43.254L22.8428 43.2568Z" fill="url(#paint5_linear_252_473)"/>
<path d="M42.1434 50.4465C42.1434 51.2391 42.0928 51.8491 41.9944 52.2707C41.8961 52.6951 41.764 52.9902 41.6037 53.1617C41.4435 53.3331 41.2018 53.4849 40.887 53.6198C40.5722 53.7547 40.2012 53.8728 39.7796 53.9712C39.3552 54.0695 38.897 54.1454 38.3995 54.2016C37.9048 54.255 37.4045 54.2832 36.8986 54.2832C35.5466 54.2832 34.3745 54.1117 33.3852 53.7688C32.393 53.4259 31.5751 52.9003 30.9258 52.1863C30.2765 51.4752 29.7987 50.5786 29.4923 49.4965C29.1859 48.4143 29.0342 47.1355 29.0342 45.657V33.3039H26.1419C25.799 33.3039 25.5376 33.0931 25.3577 32.6686C25.1778 32.2442 25.0879 31.5387 25.0879 30.5465C25.0879 30.0237 25.1104 29.5824 25.1553 29.2227C25.2003 28.8629 25.2678 28.579 25.3577 28.371C25.4477 28.163 25.5601 28.0141 25.695 27.9241C25.8299 27.8342 25.9873 27.7892 26.1672 27.7892H29.0313V22.4095C29.0313 22.2296 29.0819 22.0666 29.1803 21.9232C29.2787 21.7799 29.4586 21.6562 29.72 21.5578C29.9814 21.4594 30.3327 21.3864 30.774 21.3414C31.2153 21.2964 31.7606 21.2739 32.4098 21.2739C33.0591 21.2739 33.6297 21.2964 34.0738 21.3414C34.5151 21.3864 34.8608 21.4594 35.1138 21.5578C35.3667 21.6562 35.5466 21.7799 35.6534 21.9232C35.7602 22.0666 35.8165 22.2296 35.8165 22.4095V27.7892H41.0613C41.2412 27.7892 41.3986 27.8342 41.5335 27.9241C41.6684 28.0141 41.7808 28.163 41.8708 28.371C41.9607 28.579 42.0282 28.8629 42.0731 29.2227C42.1181 29.5824 42.1406 30.0237 42.1406 30.5465C42.1406 31.5387 42.0507 32.2442 41.8708 32.6686C41.6909 33.0931 41.4295 33.3039 41.0866 33.3039H35.8165V44.6311C35.8165 45.9465 36.0244 46.9331 36.4376 47.5908C36.8508 48.2485 37.59 48.5774 38.6553 48.5774C39.0151 48.5774 39.3411 48.5465 39.6278 48.4818C39.9145 48.42 40.1731 48.3469 40.3979 48.2654C40.6228 48.1839 40.8111 48.1136 40.9657 48.049C41.1175 47.9871 41.258 47.9534 41.3845 47.9534C41.4913 47.9534 41.5953 47.9843 41.6965 48.049C41.7949 48.1136 41.8736 48.2373 41.927 48.4284C41.9804 48.6167 42.031 48.8753 42.0759 49.1985C42.1209 49.5218 42.1434 49.9378 42.1434 50.4409V50.4465Z" fill="url(#paint6_linear_252_473)"/>
<path d="M67.0704 52.909C67.0704 53.162 66.9805 53.3587 66.8006 53.5049C66.6207 53.6482 66.3368 53.7522 65.949 53.8169C65.5611 53.8787 64.9905 53.9124 64.2316 53.9124C63.4193 53.9124 62.829 53.8815 62.4608 53.8169C62.0926 53.7522 61.8284 53.651 61.6766 53.5049C61.522 53.3615 61.4462 53.162 61.4462 52.909V50.9893C60.454 52.0517 59.3241 52.8809 58.0536 53.4768C56.7832 54.0726 55.3722 54.3678 53.8235 54.3678C52.5446 54.3678 51.3669 54.2019 50.296 53.8675C49.2223 53.533 48.2947 53.0383 47.5106 52.3806C46.7264 51.7229 46.1192 50.9078 45.6864 49.9352C45.2535 48.9627 45.0371 47.8272 45.0371 46.5286C45.0371 45.1233 45.3126 43.9034 45.8607 42.8663C46.4116 41.8291 47.2295 40.9746 48.32 40.2972C49.4106 39.6227 50.7654 39.1224 52.3872 38.7963C54.009 38.4731 55.8921 38.3101 58.0367 38.3101H60.3893V36.8513C60.3893 36.0952 60.3134 35.4319 60.1588 34.8641C60.0043 34.2963 59.7541 33.8241 59.4028 33.4447C59.0514 33.0652 58.582 32.787 57.9974 32.6071C57.4128 32.4272 56.6876 32.3373 55.8219 32.3373C54.6864 32.3373 53.6717 32.4637 52.7807 32.7167C51.8897 32.9697 51.0999 33.2479 50.414 33.5543C49.7282 33.8607 49.1576 34.1389 48.6967 34.3919C48.2385 34.6449 47.8619 34.7714 47.5752 34.7714C47.3756 34.7714 47.2014 34.7095 47.0468 34.583C46.8922 34.4566 46.7685 34.2767 46.6673 34.0434C46.569 33.8101 46.4903 33.5206 46.4369 33.1777C46.3834 32.8348 46.3553 32.4581 46.3553 32.0421C46.3553 31.4828 46.4003 31.0415 46.4903 30.7183C46.5802 30.395 46.7517 30.0999 47.0046 29.8413C47.2576 29.5799 47.6989 29.2904 48.3285 28.9756C48.9581 28.6608 49.6973 28.3685 50.5461 28.0959C51.3922 27.826 52.3169 27.604 53.3175 27.4325C54.3181 27.2611 55.3497 27.1768 56.4121 27.1768C58.3038 27.1768 59.9227 27.3623 61.2635 27.7305C62.607 28.0987 63.7088 28.6664 64.5745 29.4338C65.4402 30.2011 66.0698 31.1877 66.4661 32.3935C66.8624 33.6021 67.062 35.0328 67.062 36.6911V52.9118L67.0704 52.909ZM60.3921 42.5824H57.7978C56.6988 42.5824 55.7601 42.6639 54.9871 42.8269C54.2113 42.9899 53.5817 43.2317 53.0955 43.5577C52.6092 43.8837 52.2523 44.2744 52.0274 44.7326C51.8025 45.1907 51.6901 45.7191 51.6901 46.315C51.6901 47.3241 52.0105 48.1167 52.6486 48.6929C53.2894 49.2691 54.1748 49.5586 55.3103 49.5586C56.266 49.5586 57.1429 49.3141 57.9468 48.8278C58.7479 48.3416 59.563 47.6304 60.3921 46.6917V42.5824Z" fill="url(#paint7_linear_252_473)"/>
<path d="M90.8322 46.0144C90.8322 47.3832 90.5764 48.5918 90.062 49.6374C89.5477 50.683 88.8225 51.5572 87.8865 52.2598C86.9505 52.9625 85.8403 53.4909 84.5614 53.8423C83.2825 54.1936 81.894 54.3707 80.3987 54.3707C79.4965 54.3707 78.6364 54.3032 77.8157 54.1683C76.9949 54.0334 76.2613 53.862 75.612 53.654C74.9628 53.446 74.4231 53.2352 73.9903 53.0187C73.5574 52.8023 73.2426 52.5999 73.043 52.4116C72.8435 52.2233 72.6917 51.9254 72.5849 51.5206C72.4781 51.1159 72.4219 50.5172 72.4219 49.7217C72.4219 49.1989 72.4387 48.7802 72.4753 48.4654C72.5118 48.1506 72.5652 47.8976 72.6383 47.7093C72.7114 47.5209 72.8013 47.3945 72.9081 47.3298C73.0149 47.268 73.1527 47.2343 73.3129 47.2343C73.5096 47.2343 73.8048 47.3467 74.1926 47.5715C74.5805 47.7964 75.0611 48.0437 75.6402 48.3164C76.2164 48.5862 76.8881 48.8392 77.6555 49.0725C78.42 49.3058 79.2913 49.4238 80.2638 49.4238C80.8766 49.4238 81.4218 49.362 81.8997 49.2355C82.3775 49.109 82.7907 48.9291 83.142 48.6958C83.4933 48.4625 83.7604 48.1646 83.9402 47.8048C84.1201 47.4451 84.2101 47.0291 84.2101 46.5625C84.2101 46.0228 84.0442 45.5591 83.7098 45.1712C83.3753 44.7833 82.934 44.446 82.3859 44.1565C81.835 43.867 81.2138 43.5972 80.5196 43.3442C79.8253 43.0912 79.1142 42.813 78.3834 42.5066C77.6526 42.2002 76.9415 41.8489 76.2473 41.4526C75.553 41.0563 74.9319 40.57 74.381 39.9938C73.8301 39.4176 73.3888 38.7234 73.0571 37.9111C72.7226 37.0988 72.5568 36.1262 72.5568 34.9907C72.5568 33.8552 72.7816 32.7787 73.2314 31.8146C73.6811 30.8505 74.3304 30.027 75.1764 29.3411C76.0224 28.6553 77.054 28.1241 78.271 27.7475C79.4881 27.3708 80.8541 27.1797 82.3662 27.1797C83.1223 27.1797 83.8559 27.2331 84.5699 27.3427C85.281 27.4495 85.9246 27.5872 86.5036 27.7475C87.0798 27.9105 87.5661 28.0847 87.9624 28.2759C88.3587 28.4642 88.6426 28.6272 88.8141 28.7621C88.9855 28.897 89.1064 29.032 89.1795 29.1669C89.2525 29.3018 89.3059 29.4648 89.3425 29.6531C89.379 29.8414 89.4099 30.0775 89.438 30.3558C89.4661 30.6369 89.4774 30.9826 89.4774 31.3958C89.4774 31.882 89.4633 32.2784 89.438 32.5847C89.4099 32.8911 89.365 33.1356 89.3031 33.3155C89.2385 33.4954 89.1542 33.6163 89.0473 33.6809C88.9405 33.7427 88.8141 33.7765 88.6679 33.7765C88.5049 33.7765 88.2519 33.6809 87.9118 33.4926C87.5689 33.3043 87.1417 33.1019 86.6273 32.8855C86.1129 32.669 85.5199 32.4667 84.8425 32.2783C84.1679 32.09 83.395 31.9945 82.5321 31.9945C81.9193 31.9945 81.3881 32.0591 80.9384 32.1828C80.4887 32.3093 80.1177 32.4892 79.831 32.7224C79.5415 32.9557 79.325 33.2312 79.1817 33.546C79.0383 33.8608 78.9653 34.2009 78.9653 34.5607C78.9653 35.12 79.1367 35.5894 79.4796 35.966C79.8225 36.3455 80.2722 36.6771 80.8316 36.9667C81.3909 37.2562 82.0261 37.526 82.7373 37.7761C83.4484 38.0291 84.1707 38.3046 84.8987 38.5997C85.6295 38.8976 86.349 39.2433 87.0602 39.6397C87.7713 40.036 88.4065 40.5222 88.9658 41.0984C89.5252 41.6746 89.9749 42.3633 90.3178 43.1671C90.6607 43.9682 90.8322 44.921 90.8322 46.02V46.0144Z" fill="url(#paint8_linear_252_473)"/>
<path d="M118.974 52.8272C118.974 53.0071 118.92 53.1645 118.81 53.2994C118.704 53.4343 118.521 53.5467 118.271 53.6367C118.018 53.7266 117.672 53.7941 117.231 53.839C116.79 53.884 116.244 53.9065 115.595 53.9065C114.946 53.9065 114.375 53.884 113.931 53.839C113.49 53.7941 113.141 53.7266 112.891 53.6367C112.638 53.5467 112.458 53.4343 112.351 53.2994C112.245 53.1645 112.188 53.0071 112.188 52.8272V39.0658C112.188 37.8938 112.101 36.9747 111.933 36.3085C111.761 35.6424 111.514 35.069 111.191 34.5911C110.867 34.1133 110.446 33.7451 109.934 33.4837C109.42 33.2223 108.821 33.093 108.135 33.093C107.27 33.093 106.395 33.4078 105.513 34.0402C104.63 34.6727 103.711 35.5918 102.756 36.7976V52.8272C102.756 53.0071 102.702 53.1645 102.593 53.2994C102.486 53.4343 102.3 53.5467 102.039 53.6367C101.777 53.7266 101.432 53.7941 100.999 53.839C100.566 53.884 100.015 53.9065 99.349 53.9065C98.6828 53.9065 98.1319 53.884 97.6991 53.839C97.2662 53.7941 96.9205 53.7266 96.6591 53.6367C96.3977 53.5467 96.2122 53.4343 96.1054 53.2994C95.9986 53.1645 95.9424 53.0071 95.9424 52.8272V17.2799C95.9424 17.1 95.9958 16.9369 96.1054 16.7936C96.2122 16.6503 96.3977 16.5266 96.6591 16.4282C96.9205 16.3298 97.2662 16.2511 97.6991 16.1977C98.1319 16.1443 98.68 16.1162 99.349 16.1162C100.018 16.1162 100.566 16.1443 100.999 16.1977C101.432 16.2511 101.777 16.3298 102.039 16.4282C102.3 16.5266 102.486 16.6503 102.593 16.7936C102.699 16.9369 102.756 17.1 102.756 17.2799V30.6083C103.928 29.4559 105.122 28.5931 106.336 28.0253C107.554 27.4575 108.818 27.1736 110.134 27.1736C111.772 27.1736 113.155 27.4435 114.282 27.9831C115.41 28.5228 116.32 29.262 117.012 30.2008C117.706 31.1368 118.206 32.2329 118.513 33.4865C118.819 34.7401 118.971 36.2579 118.971 38.0427V52.83L118.974 52.8272Z" fill="url(#paint9_linear_252_473)"/>
<path d="M156.389 40.8346C156.389 42.9791 156.075 44.8989 155.442 46.5937C154.81 48.2886 153.882 49.7193 152.657 50.8913C151.431 52.0634 149.916 52.9544 148.115 53.5672C146.313 54.1799 144.239 54.4863 141.897 54.4863C139.699 54.4863 137.726 54.2108 135.978 53.6627C134.23 53.1118 132.751 52.2799 131.545 51.1612C130.337 50.0453 129.415 48.6512 128.774 46.9844C128.133 45.3177 127.815 43.367 127.815 41.1325V19.8581C127.815 19.6782 127.869 19.5152 127.978 19.3718C128.085 19.2285 128.279 19.1104 128.56 19.0205C128.839 18.9305 129.204 18.8574 129.656 18.804C130.106 18.7506 130.685 18.7225 131.388 18.7225C132.091 18.7225 132.641 18.7506 133.091 18.804C133.541 18.8574 133.903 18.9305 134.173 19.0205C134.443 19.1104 134.637 19.2285 134.755 19.3718C134.873 19.5152 134.929 19.6782 134.929 19.8581V40.5113C134.929 41.8998 135.101 43.1028 135.444 44.1203C135.787 45.1378 136.279 45.981 136.917 46.6472C137.557 47.3133 138.322 47.8136 139.216 48.1481C140.107 48.4826 141.102 48.6484 142.204 48.6484C143.305 48.6484 144.32 48.4769 145.205 48.134C146.088 47.7911 146.836 47.2908 147.448 46.6331C148.061 45.9754 148.533 45.1659 148.868 44.199C149.202 43.2349 149.368 42.1415 149.368 40.9133V19.8553C149.368 19.6754 149.422 19.5124 149.531 19.369C149.638 19.2257 149.829 19.1076 150.099 19.0177C150.369 18.9277 150.734 18.8546 151.192 18.8012C151.65 18.7478 152.224 18.7197 152.91 18.7197C153.595 18.7197 154.158 18.7478 154.599 18.8012C155.04 18.8546 155.397 18.9277 155.667 19.0177C155.937 19.1076 156.125 19.2257 156.235 19.369C156.342 19.5124 156.398 19.6754 156.398 19.8553V40.8317L156.389 40.8346Z" fill="url(#paint10_linear_252_473)"/>
<path d="M187.856 40.5366C187.856 42.6812 187.626 44.615 187.168 46.3352C186.71 48.0553 186.038 49.5197 185.152 50.7284C184.27 51.937 183.171 52.8645 181.855 53.5138C180.54 54.1631 179.033 54.4863 177.341 54.4863C176.639 54.4863 175.995 54.4188 175.408 54.2839C174.823 54.149 174.255 53.941 173.704 53.6628C173.153 53.3845 172.611 53.036 172.068 52.6228C171.529 52.2096 170.969 51.7205 170.393 51.164V62.5166C170.393 62.6964 170.34 62.8595 170.23 63.0028C170.123 63.1462 169.938 63.2698 169.677 63.3682C169.415 63.4666 169.069 63.5425 168.637 63.5987C168.204 63.6549 167.653 63.6802 166.987 63.6802C166.321 63.6802 165.77 63.6521 165.337 63.5987C164.904 63.5453 164.558 63.4666 164.297 63.3682C164.035 63.2698 163.85 63.1462 163.743 63.0028C163.636 62.8595 163.58 62.6964 163.58 62.5166V28.8328C163.58 28.6529 163.625 28.4955 163.715 28.3606C163.805 28.2256 163.962 28.1132 164.187 28.0233C164.412 27.9333 164.71 27.8659 165.078 27.8209C165.446 27.7759 165.91 27.7534 166.47 27.7534C167.029 27.7534 167.464 27.7759 167.836 27.8209C168.204 27.8659 168.502 27.9333 168.727 28.0233C168.951 28.1132 169.109 28.2256 169.199 28.3606C169.289 28.4955 169.334 28.6529 169.334 28.8328V31.6716C170.036 30.9521 170.725 30.3168 171.402 29.7659C172.077 29.215 172.768 28.7569 173.471 28.3859C174.174 28.0177 174.899 27.7422 175.647 27.5623C176.394 27.3824 177.192 27.2925 178.038 27.2925C179.804 27.2925 181.31 27.641 182.553 28.3325C183.795 29.0267 184.81 29.9767 185.594 31.1853C186.378 32.394 186.948 33.7993 187.311 35.4014C187.671 37.0064 187.851 38.7181 187.851 40.5366H187.856ZM180.773 41.0229C180.773 39.9942 180.697 39.0076 180.543 38.0632C180.388 37.116 180.127 36.2756 179.759 35.5364C179.388 34.7971 178.901 34.2069 178.3 33.7656C177.696 33.3243 176.945 33.1023 176.043 33.1023C175.593 33.1023 175.146 33.1697 174.705 33.3046C174.264 33.4396 173.814 33.6616 173.353 33.968C172.895 34.2743 172.42 34.6707 171.934 35.1569C171.447 35.6432 170.933 36.2475 170.393 36.967V44.9158C171.349 46.1244 172.26 47.0547 173.122 47.7124C173.988 48.3702 174.888 48.699 175.826 48.699C176.709 48.699 177.462 48.4742 178.083 48.0244C178.705 47.5747 179.213 46.9845 179.61 46.2537C180.006 45.5229 180.298 44.6993 180.487 43.7802C180.675 42.8611 180.771 41.942 180.771 41.0229H180.773Z" fill="url(#paint11_linear_252_473)"/>
<path d="M152.809 0.319824L145.695 12.0912H159.923L152.809 0.319824Z" fill="#F7941D"/>
<path d="M156.387 12.0918H149.354V20.9906H156.387V12.0918Z" fill="#F7941D"/>
<path d="M156.389 40.8346C156.389 42.9791 156.075 44.8989 155.442 46.5937C154.81 48.2886 153.882 49.7193 152.657 50.8913C151.431 52.0634 149.916 52.9544 148.115 53.5672C146.313 54.1799 144.239 54.4863 141.897 54.4863C139.699 54.4863 137.726 54.2108 135.978 53.6627C134.23 53.1118 132.751 52.2799 131.545 51.1612C130.337 50.0453 129.415 48.6512 128.774 46.9844C128.133 45.3177 127.815 43.367 127.815 41.1325V19.8581C127.815 19.6782 127.869 19.5152 127.978 19.3718C128.085 19.2285 128.279 19.1104 128.56 19.0205C128.839 18.9305 129.204 18.8574 129.656 18.804C130.106 18.7506 130.685 18.7225 131.388 18.7225C132.091 18.7225 132.641 18.7506 133.091 18.804C133.541 18.8574 133.903 18.9305 134.173 19.0205C134.443 19.1104 134.637 19.2285 134.755 19.3718C134.873 19.5152 134.929 19.6782 134.929 19.8581V40.5113C134.929 41.8998 135.101 43.1028 135.444 44.1203C135.787 45.1378 136.279 45.981 136.917 46.6472C137.557 47.3133 138.322 47.8136 139.216 48.1481C140.107 48.4826 141.102 48.6484 142.204 48.6484C143.305 48.6484 144.32 48.4769 145.205 48.134C146.088 47.7911 146.836 47.2908 147.448 46.6331C148.061 45.9754 148.533 45.1659 148.868 44.199C149.202 43.2349 149.368 42.1415 149.368 40.9133V19.8553C149.368 19.6754 149.422 19.5124 149.531 19.369C149.638 19.2257 149.829 19.1076 150.099 19.0177C150.369 18.9277 150.734 18.8546 151.192 18.8012C151.65 18.7478 152.224 18.7197 152.91 18.7197C153.595 18.7197 154.158 18.7478 154.599 18.8012C155.04 18.8546 155.397 18.9277 155.667 19.0177C155.937 19.1076 156.125 19.2257 156.235 19.369C156.342 19.5124 156.398 19.6754 156.398 19.8553V40.8317L156.389 40.8346Z" fill="url(#paint12_linear_252_473)"/>
<path d="M187.856 40.5366C187.856 42.6812 187.626 44.615 187.168 46.3352C186.71 48.0553 186.038 49.5197 185.152 50.7284C184.27 51.937 183.171 52.8645 181.855 53.5138C180.54 54.1631 179.033 54.4863 177.341 54.4863C176.639 54.4863 175.995 54.4188 175.408 54.2839C174.823 54.149 174.255 53.941 173.704 53.6628C173.153 53.3845 172.611 53.036 172.068 52.6228C171.529 52.2096 170.969 51.7205 170.393 51.164V62.5166C170.393 62.6964 170.34 62.8595 170.23 63.0028C170.123 63.1462 169.938 63.2698 169.677 63.3682C169.415 63.4666 169.069 63.5425 168.637 63.5987C168.204 63.6549 167.653 63.6802 166.987 63.6802C166.321 63.6802 165.77 63.6521 165.337 63.5987C164.904 63.5453 164.558 63.4666 164.297 63.3682C164.035 63.2698 163.85 63.1462 163.743 63.0028C163.636 62.8595 163.58 62.6964 163.58 62.5166V28.8328C163.58 28.6529 163.625 28.4955 163.715 28.3606C163.805 28.2256 163.962 28.1132 164.187 28.0233C164.412 27.9333 164.71 27.8659 165.078 27.8209C165.446 27.7759 165.91 27.7534 166.47 27.7534C167.029 27.7534 167.464 27.7759 167.836 27.8209C168.204 27.8659 168.502 27.9333 168.727 28.0233C168.951 28.1132 169.109 28.2256 169.199 28.3606C169.289 28.4955 169.334 28.6529 169.334 28.8328V31.6716C170.036 30.9521 170.725 30.3168 171.402 29.7659C172.077 29.215 172.768 28.7569 173.471 28.3859C174.174 28.0177 174.899 27.7422 175.647 27.5623C176.394 27.3824 177.192 27.2925 178.038 27.2925C179.804 27.2925 181.31 27.641 182.553 28.3325C183.795 29.0267 184.81 29.9767 185.594 31.1853C186.378 32.394 186.948 33.7993 187.311 35.4014C187.671 37.0064 187.851 38.7181 187.851 40.5366H187.856ZM180.773 41.0229C180.773 39.9942 180.697 39.0076 180.543 38.0632C180.388 37.116 180.127 36.2756 179.759 35.5364C179.388 34.7971 178.901 34.2069 178.3 33.7656C177.696 33.3243 176.945 33.1023 176.043 33.1023C175.593 33.1023 175.146 33.1697 174.705 33.3046C174.264 33.4396 173.814 33.6616 173.353 33.968C172.895 34.2743 172.42 34.6707 171.934 35.1569C171.447 35.6432 170.933 36.2475 170.393 36.967V44.9158C171.349 46.1244 172.26 47.0547 173.122 47.7124C173.988 48.3702 174.888 48.699 175.826 48.699C176.709 48.699 177.462 48.4742 178.083 48.0244C178.705 47.5747 179.213 46.9845 179.61 46.2537C180.006 45.5229 180.298 44.6993 180.487 43.7802C180.675 42.8611 180.771 41.942 180.771 41.0229H180.773Z" fill="url(#paint13_linear_252_473)"/>
<path d="M156.389 40.8346C156.389 42.9791 156.075 44.8989 155.442 46.5937C154.81 48.2886 153.882 49.7193 152.657 50.8913C151.431 52.0634 149.916 52.9544 148.115 53.5672C146.313 54.1799 144.239 54.4863 141.897 54.4863C139.699 54.4863 137.726 54.2108 135.978 53.6627C134.23 53.1118 132.751 52.2799 131.545 51.1612C130.337 50.0453 129.415 48.6512 128.774 46.9844C128.133 45.3177 127.815 43.367 127.815 41.1325V19.8581C127.815 19.6782 127.869 19.5152 127.978 19.3718C128.085 19.2285 128.279 19.1104 128.56 19.0205C128.839 18.9305 129.204 18.8574 129.656 18.804C130.106 18.7506 130.685 18.7225 131.388 18.7225C132.091 18.7225 132.641 18.7506 133.091 18.804C133.541 18.8574 133.903 18.9305 134.173 19.0205C134.443 19.1104 134.637 19.2285 134.755 19.3718C134.873 19.5152 134.929 19.6782 134.929 19.8581V40.5113C134.929 41.8998 135.101 43.1028 135.444 44.1203C135.787 45.1378 136.279 45.981 136.917 46.6472C137.557 47.3133 138.322 47.8136 139.216 48.1481C140.107 48.4826 141.102 48.6484 142.204 48.6484C143.305 48.6484 144.32 48.4769 145.205 48.134C146.088 47.7911 146.836 47.2908 147.448 46.6331C148.061 45.9754 148.533 45.1659 148.868 44.199C149.202 43.2349 149.368 42.1415 149.368 40.9133V19.8553C149.368 19.6754 149.422 19.5124 149.531 19.369C149.638 19.2257 149.829 19.1076 150.099 19.0177C150.369 18.9277 150.734 18.8546 151.192 18.8012C151.65 18.7478 152.224 18.7197 152.91 18.7197C153.595 18.7197 154.158 18.7478 154.599 18.8012C155.04 18.8546 155.397 18.9277 155.667 19.0177C155.937 19.1076 156.125 19.2257 156.235 19.369C156.342 19.5124 156.398 19.6754 156.398 19.8553V40.8317L156.389 40.8346Z" fill="url(#paint14_linear_252_473)"/>
<path d="M187.856 40.5366C187.856 42.6812 187.626 44.615 187.168 46.3352C186.71 48.0553 186.038 49.5197 185.152 50.7284C184.27 51.937 183.171 52.8645 181.855 53.5138C180.54 54.1631 179.033 54.4863 177.341 54.4863C176.639 54.4863 175.995 54.4188 175.408 54.2839C174.823 54.149 174.255 53.941 173.704 53.6628C173.153 53.3845 172.611 53.036 172.068 52.6228C171.529 52.2096 170.969 51.7205 170.393 51.164V62.5166C170.393 62.6964 170.34 62.8595 170.23 63.0028C170.123 63.1462 169.938 63.2698 169.677 63.3682C169.415 63.4666 169.069 63.5425 168.637 63.5987C168.204 63.6549 167.653 63.6802 166.987 63.6802C166.321 63.6802 165.77 63.6521 165.337 63.5987C164.904 63.5453 164.558 63.4666 164.297 63.3682C164.035 63.2698 163.85 63.1462 163.743 63.0028C163.636 62.8595 163.58 62.6964 163.58 62.5166V28.8328C163.58 28.6529 163.625 28.4955 163.715 28.3606C163.805 28.2256 163.962 28.1132 164.187 28.0233C164.412 27.9333 164.71 27.8659 165.078 27.8209C165.446 27.7759 165.91 27.7534 166.47 27.7534C167.029 27.7534 167.464 27.7759 167.836 27.8209C168.204 27.8659 168.502 27.9333 168.727 28.0233C168.951 28.1132 169.109 28.2256 169.199 28.3606C169.289 28.4955 169.334 28.6529 169.334 28.8328V31.6716C170.036 30.9521 170.725 30.3168 171.402 29.7659C172.077 29.215 172.768 28.7569 173.471 28.3859C174.174 28.0177 174.899 27.7422 175.647 27.5623C176.394 27.3824 177.192 27.2925 178.038 27.2925C179.804 27.2925 181.31 27.641 182.553 28.3325C183.795 29.0267 184.81 29.9767 185.594 31.1853C186.378 32.394 186.948 33.7993 187.311 35.4014C187.671 37.0064 187.851 38.7181 187.851 40.5366H187.856ZM180.773 41.0229C180.773 39.9942 180.697 39.0076 180.543 38.0632C180.388 37.116 180.127 36.2756 179.759 35.5364C179.388 34.7971 178.901 34.2069 178.3 33.7656C177.696 33.3243 176.945 33.1023 176.043 33.1023C175.593 33.1023 175.146 33.1697 174.705 33.3046C174.264 33.4396 173.814 33.6616 173.353 33.968C172.895 34.2743 172.42 34.6707 171.934 35.1569C171.447 35.6432 170.933 36.2475 170.393 36.967V44.9158C171.349 46.1244 172.26 47.0547 173.122 47.7124C173.988 48.3702 174.888 48.699 175.826 48.699C176.709 48.699 177.462 48.4742 178.083 48.0244C178.705 47.5747 179.213 46.9845 179.61 46.2537C180.006 45.5229 180.298 44.6993 180.487 43.7802C180.675 42.8611 180.771 41.942 180.771 41.0229H180.773Z" fill="url(#paint15_linear_252_473)"/>
<path d="M156.389 40.8346C156.389 42.9791 156.075 44.8989 155.442 46.5937C154.81 48.2886 153.882 49.7193 152.657 50.8913C151.431 52.0634 149.916 52.9544 148.115 53.5672C146.313 54.1799 144.239 54.4863 141.897 54.4863C139.699 54.4863 137.726 54.2108 135.978 53.6627C134.23 53.1118 132.751 52.2799 131.545 51.1612C130.337 50.0453 129.415 48.6512 128.774 46.9844C128.133 45.3177 127.815 43.367 127.815 41.1325V19.8581C127.815 19.6782 127.869 19.5152 127.978 19.3718C128.085 19.2285 128.279 19.1104 128.56 19.0205C128.839 18.9305 129.204 18.8574 129.656 18.804C130.106 18.7506 130.685 18.7225 131.388 18.7225C132.091 18.7225 132.641 18.7506 133.091 18.804C133.541 18.8574 133.903 18.9305 134.173 19.0205C134.443 19.1104 134.637 19.2285 134.755 19.3718C134.873 19.5152 134.929 19.6782 134.929 19.8581V40.5113C134.929 41.8998 135.101 43.1028 135.444 44.1203C135.787 45.1378 136.279 45.981 136.917 46.6472C137.557 47.3133 138.322 47.8136 139.216 48.1481C140.107 48.4826 141.102 48.6484 142.204 48.6484C143.305 48.6484 144.32 48.4769 145.205 48.134C146.088 47.7911 146.836 47.2908 147.448 46.6331C148.061 45.9754 148.533 45.1659 148.868 44.199C149.202 43.2349 149.368 42.1415 149.368 40.9133V19.8553C149.368 19.6754 149.422 19.5124 149.531 19.369C149.638 19.2257 149.829 19.1076 150.099 19.0177C150.369 18.9277 150.734 18.8546 151.192 18.8012C151.65 18.7478 152.224 18.7197 152.91 18.7197C153.595 18.7197 154.158 18.7478 154.599 18.8012C155.04 18.8546 155.397 18.9277 155.667 19.0177C155.937 19.1076 156.125 19.2257 156.235 19.369C156.342 19.5124 156.398 19.6754 156.398 19.8553V40.8317L156.389 40.8346Z" fill="url(#paint16_linear_252_473)"/>
<path d="M187.856 40.5366C187.856 42.6812 187.626 44.615 187.168 46.3352C186.71 48.0553 186.038 49.5197 185.152 50.7284C184.27 51.937 183.171 52.8645 181.855 53.5138C180.54 54.1631 179.033 54.4863 177.341 54.4863C176.639 54.4863 175.995 54.4188 175.408 54.2839C174.823 54.149 174.255 53.941 173.704 53.6628C173.153 53.3845 172.611 53.036 172.068 52.6228C171.529 52.2096 170.969 51.7205 170.393 51.164V62.5166C170.393 62.6964 170.34 62.8595 170.23 63.0028C170.123 63.1462 169.938 63.2698 169.677 63.3682C169.415 63.4666 169.069 63.5425 168.637 63.5987C168.204 63.6549 167.653 63.6802 166.987 63.6802C166.321 63.6802 165.77 63.6521 165.337 63.5987C164.904 63.5453 164.558 63.4666 164.297 63.3682C164.035 63.2698 163.85 63.1462 163.743 63.0028C163.636 62.8595 163.58 62.6964 163.58 62.5166V28.8328C163.58 28.6529 163.625 28.4955 163.715 28.3606C163.805 28.2256 163.962 28.1132 164.187 28.0233C164.412 27.9333 164.71 27.8659 165.078 27.8209C165.446 27.7759 165.91 27.7534 166.47 27.7534C167.029 27.7534 167.464 27.7759 167.836 27.8209C168.204 27.8659 168.502 27.9333 168.727 28.0233C168.951 28.1132 169.109 28.2256 169.199 28.3606C169.289 28.4955 169.334 28.6529 169.334 28.8328V31.6716C170.036 30.9521 170.725 30.3168 171.402 29.7659C172.077 29.215 172.768 28.7569 173.471 28.3859C174.174 28.0177 174.899 27.7422 175.647 27.5623C176.394 27.3824 177.192 27.2925 178.038 27.2925C179.804 27.2925 181.31 27.641 182.553 28.3325C183.795 29.0267 184.81 29.9767 185.594 31.1853C186.378 32.394 186.948 33.7993 187.311 35.4014C187.671 37.0064 187.851 38.7181 187.851 40.5366H187.856ZM180.773 41.0229C180.773 39.9942 180.697 39.0076 180.543 38.0632C180.388 37.116 180.127 36.2756 179.759 35.5364C179.388 34.7971 178.901 34.2069 178.3 33.7656C177.696 33.3243 176.945 33.1023 176.043 33.1023C175.593 33.1023 175.146 33.1697 174.705 33.3046C174.264 33.4396 173.814 33.6616 173.353 33.968C172.895 34.2743 172.42 34.6707 171.934 35.1569C171.447 35.6432 170.933 36.2475 170.393 36.967V44.9158C171.349 46.1244 172.26 47.0547 173.122 47.7124C173.988 48.3702 174.888 48.699 175.826 48.699C176.709 48.699 177.462 48.4742 178.083 48.0244C178.705 47.5747 179.213 46.9845 179.61 46.2537C180.006 45.5229 180.298 44.6993 180.487 43.7802C180.675 42.8611 180.771 41.942 180.771 41.0229H180.773Z" fill="url(#paint17_linear_252_473)"/>
<path d="M152.809 0.319824L145.695 12.0912H159.923L152.809 0.319824Z" fill="url(#paint18_linear_252_473)"/>
<path d="M156.387 12.0918H149.354V20.9906H156.387V12.0918Z" fill="url(#paint19_linear_252_473)"/>
<defs>
<linearGradient id="paint0_linear_252_473" x1="0" y1="35.2406" x2="118.973" y2="35.2406" gradientUnits="userSpaceOnUse">
<stop stop-color="white"/>
<stop offset="0.25" stop-color="#3752A4"/>
</linearGradient>
<linearGradient id="paint1_linear_252_473" x1="-0.000691607" y1="35.2404" x2="118.972" y2="35.2404" gradientUnits="userSpaceOnUse">
<stop stop-color="white"/>
<stop offset="0.25" stop-color="#3752A4"/>
</linearGradient>
<linearGradient id="paint2_linear_252_473" x1="0.000767812" y1="35.2407" x2="118.973" y2="35.2407" gradientUnits="userSpaceOnUse">
<stop stop-color="white"/>
<stop offset="0.25" stop-color="#3752A4"/>
</linearGradient>
<linearGradient id="paint3_linear_252_473" x1="0.000586716" y1="35.2409" x2="118.973" y2="35.2409" gradientUnits="userSpaceOnUse">
<stop stop-color="white"/>
<stop offset="0.25" stop-color="#3752A4"/>
</linearGradient>
<linearGradient id="paint4_linear_252_473" x1="0.000897044" y1="35.2404" x2="118.974" y2="35.2404" gradientUnits="userSpaceOnUse">
<stop stop-color="white"/>
<stop offset="0.25" stop-color="#3752A4"/>
</linearGradient>
<linearGradient id="paint5_linear_252_473" x1="59.4329" y1="23.2276" x2="59.6662" y2="111.636" gradientUnits="userSpaceOnUse">
<stop offset="0.08" stop-color="#00BAF2"/>
<stop offset="0.35" stop-color="#464099"/>
</linearGradient>
<linearGradient id="paint6_linear_252_473" x1="59.4322" y1="23.2274" x2="59.6655" y2="111.636" gradientUnits="userSpaceOnUse">
<stop offset="0.08" stop-color="#00BAF2"/>
<stop offset="0.35" stop-color="#464099"/>
</linearGradient>
<linearGradient id="paint7_linear_252_473" x1="59.4337" y1="23.2277" x2="59.667" y2="111.636" gradientUnits="userSpaceOnUse">
<stop offset="0.08" stop-color="#00BAF2"/>
<stop offset="0.35" stop-color="#464099"/>
</linearGradient>
<linearGradient id="paint8_linear_252_473" x1="59.4335" y1="23.2278" x2="59.6668" y2="111.637" gradientUnits="userSpaceOnUse">
<stop offset="0.08" stop-color="#00BAF2"/>
<stop offset="0.35" stop-color="#464099"/>
</linearGradient>
<linearGradient id="paint9_linear_252_473" x1="59.4338" y1="23.2274" x2="59.6671" y2="111.636" gradientUnits="userSpaceOnUse">
<stop offset="0.08" stop-color="#00BAF2"/>
<stop offset="0.35" stop-color="#464099"/>
</linearGradient>
<linearGradient id="paint10_linear_252_473" x1="124.032" y1="40.9414" x2="216.126" y2="40.9414" gradientUnits="userSpaceOnUse">
<stop stop-color="white"/>
<stop offset="0.25" stop-color="#3752A4"/>
</linearGradient>
<linearGradient id="paint11_linear_252_473" x1="124.033" y1="40.9414" x2="216.127" y2="40.9414" gradientUnits="userSpaceOnUse">
<stop stop-color="white"/>
<stop offset="0.25" stop-color="#3752A4"/>
</linearGradient>
<linearGradient id="paint12_linear_252_473" x1="157.859" y1="20.6254" x2="157.654" y2="100.565" gradientUnits="userSpaceOnUse">
<stop offset="0.07" stop-color="#FDC70C"/>
<stop offset="0.26" stop-color="#F3903F"/>
<stop offset="0.42" stop-color="#ED683C"/>
<stop offset="0.55" stop-color="#E93E3A"/>
</linearGradient>
<linearGradient id="paint13_linear_252_473" x1="157.86" y1="20.6254" x2="157.655" y2="100.565" gradientUnits="userSpaceOnUse">
<stop offset="0.07" stop-color="#FDC70C"/>
<stop offset="0.26" stop-color="#F3903F"/>
<stop offset="0.42" stop-color="#ED683C"/>
<stop offset="0.55" stop-color="#E93E3A"/>
</linearGradient>
<linearGradient id="paint14_linear_252_473" x1="157.859" y1="20.6254" x2="157.654" y2="100.565" gradientUnits="userSpaceOnUse">
<stop offset="0.07" stop-color="#FDC70C"/>
<stop offset="0.26" stop-color="#F3903F"/>
<stop offset="0.42" stop-color="#ED683C"/>
<stop offset="0.55" stop-color="#E93E3A"/>
</linearGradient>
<linearGradient id="paint15_linear_252_473" x1="157.86" y1="20.6254" x2="157.655" y2="100.565" gradientUnits="userSpaceOnUse">
<stop offset="0.07" stop-color="#FDC70C"/>
<stop offset="0.26" stop-color="#F3903F"/>
<stop offset="0.42" stop-color="#ED683C"/>
<stop offset="0.55" stop-color="#E93E3A"/>
</linearGradient>
<linearGradient id="paint16_linear_252_473" x1="157.859" y1="20.6254" x2="157.654" y2="100.565" gradientUnits="userSpaceOnUse">
<stop offset="0.07" stop-color="#FDC70C"/>
<stop offset="0.26" stop-color="#F3903F"/>
<stop offset="0.42" stop-color="#ED683C"/>
<stop offset="0.55" stop-color="#E93E3A"/>
</linearGradient>
<linearGradient id="paint17_linear_252_473" x1="157.86" y1="20.6254" x2="157.655" y2="100.565" gradientUnits="userSpaceOnUse">
<stop offset="0.07" stop-color="#FDC70C"/>
<stop offset="0.26" stop-color="#F3903F"/>
<stop offset="0.42" stop-color="#ED683C"/>
<stop offset="0.55" stop-color="#E93E3A"/>
</linearGradient>
<linearGradient id="paint18_linear_252_473" x1="157.86" y1="20.6245" x2="157.655" y2="100.565" gradientUnits="userSpaceOnUse">
<stop offset="0.07" stop-color="#FDC70C"/>
<stop offset="0.26" stop-color="#F3903F"/>
<stop offset="0.42" stop-color="#ED683C"/>
<stop offset="0.55" stop-color="#E93E3A"/>
</linearGradient>
<linearGradient id="paint19_linear_252_473" x1="157.86" y1="20.6252" x2="157.655" y2="100.565" gradientUnits="userSpaceOnUse">
<stop offset="0.07" stop-color="#FDC70C"/>
<stop offset="0.26" stop-color="#F3903F"/>
<stop offset="0.42" stop-color="#ED683C"/>
<stop offset="0.55" stop-color="#E93E3A"/>
</linearGradient>
</defs>
</svg>
